# xmcd CD database file
#
# Track frame offsets:
#	225
#	17455
#	40113
#	55707
#	72869
#	88126
#	109931
#	125261
#	142106
#	165650
#	182454
#	200717
#	219229
#	236536
#	255260
#	272093
#	288679
#	303929
#
# Disc length: 4303 seconds
#
# Revision: 0
# Processed by: cddbd v1.4PL0 Copyright (c) Steve Scherf et al.
# Submitted via: CDex 1.50Beta7
#
DISCID=fd10cc12
DTITLE=I-Sense - Sacred Geometry
DYEAR=1997
DGENRE=New Age
TTITLE0=Mobile
TTITLE1=Higher
TTITLE2=Phisto
TTITLE3=Ajikan
TTITLE4=Room 19
TTITLE5=Dallam
TTITLE6=Encore
TTITLE7=Sacred
TTITLE8=Tantra
TTITLE9=Mighty
TTITLE10=Change
TTITLE11=Sophia
TTITLE12=Kosmoa
TTITLE13=St Paul
TTITLE14=Gromer
TTITLE15=Esprit
TTITLE16=Remote
TTITLE17=Deeper
EXTD=YEAR: 1997
EXTT0=
EXTT1=
EXTT2=
EXTT3=
EXTT4=
EXTT5=
EXTT6=
EXTT7=
EXTT8=
EXTT9=
EXTT10=
EXTT11=
EXTT12=
EXTT13=
EXTT14=
EXTT15=
EXTT16=
EXTT17=
PLAYORDER=
